<svg width="57" height="57" viewBox="0 0 57 57" fill="none" xmlns="http://www.w3.org/2000/svg">
<path d="M52.2083 22.5469L54.3239 26.7432L49.8828 30.9395L52.2083 22.5469Z" fill="#008C44"/>
<path d="M50.7317 22.5469L52.8386 26.7432L48.4062 30.9395L50.7317 22.5469Z" fill="#F47920"/>
<path d="M12.4577 31.027L5.72611 25.5281L4.20494 31.0008H2.53516L4.86936 22.5731L11.601 28.0721L13.1309 22.5644H14.8006L12.4577 31.027ZM47.1648 29.331H38.7809L40.1971 24.208H48.581L48.7996 23.4124C48.8695 23.1676 48.8433 22.9666 48.7296 22.8092C48.616 22.6518 48.4324 22.5644 48.1964 22.5644H39.8125C39.5764 22.5644 39.3579 22.6518 39.1568 22.8092C38.947 22.9753 38.8158 23.1764 38.7546 23.4124L36.8925 30.144C36.8313 30.38 36.8488 30.5811 36.9625 30.7385C37.0761 30.8958 37.251 30.9833 37.487 30.9833H45.8709C46.1069 30.9833 46.3255 30.9046 46.5353 30.7385C46.7451 30.5811 46.8763 30.38 46.9462 30.144L47.1648 29.331ZM27.4683 22.5557L27.0137 24.1905H31.2537L29.3829 30.9658H31.0614L32.941 24.1905H37.0674H37.0761L37.522 22.5557H27.4683ZM25.274 22.5557H16.8901C16.8464 22.5557 16.7939 22.5557 16.7502 22.5644C16.5666 22.5906 16.3918 22.6693 16.2256 22.8004C16.0246 22.9666 15.8847 23.1676 15.8235 23.4037L13.9614 30.1353C13.8914 30.3713 13.9177 30.5724 14.0313 30.7297C14.145 30.8871 14.3198 30.9745 14.5559 30.9745H15.3951H22.1267H22.9485C23.1845 30.9745 23.4031 30.8958 23.6129 30.7297C23.8227 30.5724 23.9539 30.3713 24.0238 30.1353L24.2511 29.3222H22.5901H15.8585L16.3393 27.5912H23.0622L23.5168 25.9477H16.7939L17.2747 24.1905H23.9976H25.6586L25.8772 23.3949C25.9471 23.1501 25.9209 22.9491 25.8072 22.7917C25.7023 22.6431 25.5187 22.5557 25.274 22.5557Z" fill="#6D6E71"/>
<path d="M1.87109 33.4742L2.29947 31.9531L3.03382 33.0459L3.31358 32.058H3.53214L3.10376 33.5704L2.36941 32.4864L2.08965 33.483H1.87109V33.4742ZM4.80852 33.4742H5.04456L4.78229 31.9531L3.65453 33.4742H3.89057L4.1441 33.1246H4.75606L4.80852 33.4742ZM4.29272 32.9235L4.65116 32.4426L4.72984 32.9235H4.29272ZM6.54824 32.2503L6.60944 32.0492H5.7352L5.67401 32.2503H6.00622L5.66527 33.4742H5.88382L6.22477 32.2503H6.54824ZM7.13398 32.0492L6.73183 33.4742H6.95039L7.35254 32.0492H7.13398ZM7.76343 32.7574C7.70223 32.9847 7.72846 33.1683 7.85085 33.3081C7.9645 33.4393 8.10438 33.5005 8.29671 33.5005C8.50652 33.5005 8.69885 33.4305 8.89119 33.2819C9.07477 33.142 9.19717 32.9672 9.25836 32.7574C9.31956 32.5563 9.29333 32.3815 9.18843 32.2328C9.08352 32.0842 8.9349 32.0143 8.72508 32.0143C8.51527 32.0143 8.32293 32.0842 8.1306 32.2328C7.94701 32.3815 7.82462 32.5476 7.76343 32.7574ZM7.98198 32.7574C8.0257 32.6088 8.11312 32.4776 8.24425 32.3815C8.37539 32.2765 8.51527 32.2241 8.66389 32.2241C8.8125 32.2241 8.92616 32.2765 8.99609 32.3815C9.06603 32.4864 9.08352 32.6088 9.03981 32.7661C8.99609 32.9147 8.90867 33.0459 8.77754 33.1508C8.6464 33.2557 8.50652 33.3081 8.3579 33.3081C8.21803 33.3081 8.11312 33.2557 8.03444 33.1595C7.95576 33.0459 7.93827 32.9147 7.98198 32.7574ZM9.88781 33.4742L10.1676 32.4776L10.9019 33.5617L11.3216 32.0492H11.1117L10.832 33.0371L10.0976 31.9443L9.66925 33.4655H9.88781V33.4742ZM12.6067 33.4742H12.8427L12.5892 31.9531L11.4527 33.4742H11.68L11.9335 33.1246H12.5455L12.6067 33.4742ZM12.0909 32.9235L12.4493 32.4426L12.528 32.9235H12.0909ZM13.7607 32.0492L13.3585 33.4742H13.9967L14.0579 33.2732H13.6383L13.9792 32.0492H13.7607ZM16.6544 32.0492H15.8676L15.4654 33.4742H16.2522L16.3047 33.2732H15.7364L15.8676 32.7923H16.4271L16.4795 32.5913H15.92L16.0162 32.2503H16.5844L16.6544 32.0492ZM17.2751 32.0492L16.8729 33.4742H17.5111L17.5723 33.2732H17.1527L17.4936 32.0492H17.2751ZM19.2421 32.0492H18.4553L18.0531 33.4742H18.84L18.8924 33.2732H18.3242L18.4553 32.7923H19.0148L19.0673 32.5913H18.5077L18.6039 32.2503H19.1722L19.2421 32.0492ZM20.9031 32.1192C20.807 32.0492 20.6933 32.0143 20.5622 32.0143C20.3262 32.0143 20.1163 32.1017 19.9153 32.2765C19.7579 32.4164 19.653 32.5825 19.6005 32.7574C19.5481 32.9584 19.5656 33.1333 19.6705 33.2732C19.7754 33.413 19.9328 33.4917 20.1338 33.4917C20.265 33.4917 20.4048 33.4568 20.5535 33.3868L20.6234 33.1246C20.5797 33.1508 20.536 33.177 20.501 33.2032C20.466 33.2207 20.4311 33.2382 20.3961 33.2557C20.3349 33.2819 20.265 33.2907 20.195 33.2907C20.0464 33.2907 19.9415 33.2382 19.8628 33.1333C19.7929 33.0284 19.7754 32.906 19.8191 32.7574C19.8628 32.6088 19.9502 32.4776 20.0726 32.3727C20.2038 32.2678 20.3436 32.2153 20.4923 32.2153C20.6234 32.2153 20.737 32.2678 20.8332 32.3727L20.9031 32.1192ZM22.197 32.2503L22.2582 32.0492H21.384L21.3228 32.2503H21.655L21.314 33.4742H21.5326L21.8735 32.2503H22.197ZM23.045 32.8623C23.1499 32.8448 23.2374 32.7923 23.316 32.7224C23.3947 32.6525 23.4472 32.565 23.4734 32.4601C23.5084 32.329 23.4909 32.2241 23.4209 32.1454C23.3597 32.0755 23.2286 32.0405 23.045 32.0405H22.7915L22.3893 33.4655H22.6079L22.774 32.8798H22.8177L23.0625 33.4655H23.3248L23.045 32.8623ZM22.9489 32.2503H23.0275C23.2286 32.2503 23.3073 32.3203 23.2636 32.4689C23.2199 32.6262 23.0975 32.7049 22.8877 32.7049H22.8177L22.9489 32.2503ZM23.9717 32.7574C23.9105 32.9847 23.9367 33.1683 24.0591 33.3081C24.1728 33.4393 24.3214 33.5005 24.505 33.5005C24.7148 33.5005 24.9159 33.4305 25.0995 33.2819C25.2831 33.142 25.4055 32.9672 25.4666 32.7574C25.5191 32.5563 25.5016 32.3815 25.3967 32.2328C25.2918 32.0842 25.1344 32.0143 24.9334 32.0143C24.7235 32.0143 24.5312 32.0842 24.3389 32.2328C24.1466 32.3815 24.0242 32.5476 23.9717 32.7574ZM24.1903 32.7574C24.234 32.6088 24.3214 32.4776 24.4525 32.3815C24.5837 32.2765 24.7235 32.2241 24.8722 32.2241C25.0208 32.2241 25.1344 32.2765 25.2044 32.3815C25.2743 32.4864 25.2918 32.6088 25.2481 32.7661C25.2044 32.9147 25.117 33.0459 24.9858 33.1508C24.8547 33.2557 24.7148 33.3081 24.5662 33.3081C24.4263 33.3081 24.3214 33.2557 24.2427 33.1595C24.1553 33.0459 24.1466 32.9147 24.1903 32.7574ZM26.0874 33.4742L26.3671 32.4776L27.1015 33.5617L27.5211 32.0492H27.3025L27.0228 33.0371L26.2884 31.9443L25.8601 33.4655H26.0874V33.4742ZM28.2117 32.0492L27.8096 33.4742H28.0281L28.4303 32.0492H28.2117ZM30.1438 32.1192C30.0476 32.0492 29.9252 32.0143 29.8028 32.0143C29.5668 32.0143 29.357 32.1017 29.1559 32.2765C28.9985 32.4164 28.8936 32.5825 28.8412 32.7574C28.7887 32.9584 28.8062 33.1333 28.9111 33.2732C29.016 33.413 29.1734 33.4917 29.3745 33.4917C29.5143 33.4917 29.6455 33.4568 29.7941 33.3868L29.864 33.1246C29.8203 33.1508 29.7766 33.177 29.7416 33.2032C29.7067 33.2207 29.6717 33.2382 29.6367 33.2557C29.5755 33.2819 29.5056 33.2907 29.4357 33.2907C29.287 33.2907 29.1821 33.2382 29.1035 33.1333C29.0335 33.0284 29.016 32.906 29.0597 32.7574C29.1035 32.6088 29.1909 32.4776 29.322 32.3727C29.4531 32.2678 29.593 32.2153 29.7329 32.2153C29.864 32.2153 29.9777 32.2678 30.0739 32.3727L30.1438 32.1192ZM32.3643 32.2503L32.4255 32.0492H31.5601L31.5076 32.2503H31.8311L31.4901 33.4742H31.7087L32.0496 32.2503H32.3643ZM32.6441 32.7574C32.5829 32.9847 32.6091 33.1683 32.7315 33.3081C32.8452 33.4393 32.9938 33.5005 33.1774 33.5005C33.3872 33.5005 33.5795 33.4305 33.7719 33.2819C33.9555 33.142 34.0778 32.9672 34.139 32.7574C34.1915 32.5563 34.174 32.3815 34.0691 32.2328C33.9642 32.0842 33.8156 32.0143 33.6058 32.0143C33.3959 32.0143 33.2036 32.0842 33.02 32.2328C32.8189 32.3815 32.6966 32.5476 32.6441 32.7574ZM32.8627 32.7574C32.9064 32.6088 32.9938 32.4776 33.1249 32.3815C33.2561 32.2765 33.3959 32.2241 33.5446 32.2241C33.6932 32.2241 33.8068 32.2765 33.8768 32.3815C33.9467 32.4864 33.9642 32.6088 33.9205 32.7661C33.8768 32.9147 33.7893 33.0459 33.6582 33.1508C33.5271 33.2557 33.3872 33.3081 33.2386 33.3081C33.0987 33.3081 32.9938 33.2557 32.9151 33.1595C32.8277 33.0459 32.8189 32.9147 32.8627 32.7574ZM34.9433 32.0492L34.5412 33.4742H35.1794L35.2318 33.2732H34.8122L35.1531 32.0492H34.9433ZM36.1235 32.0492L35.7214 33.4742H36.3596L36.412 33.2732H35.9924L36.3334 32.0492H36.1235ZM39.262 32.1192C39.1659 32.0492 39.0435 32.0143 38.9211 32.0143C38.6851 32.0143 38.4665 32.1017 38.2742 32.2765C38.1168 32.4164 38.0119 32.5825 37.9594 32.7574C37.907 32.9584 37.9245 33.1333 38.0294 33.2732C38.1343 33.413 38.2829 33.4917 38.4927 33.4917C38.6326 33.4917 38.7725 33.4568 38.9123 33.3868L38.9823 33.1246C38.9386 33.1508 38.8949 33.177 38.8599 33.2032C38.8249 33.2207 38.79 33.2382 38.755 33.2557C38.6938 33.2819 38.6239 33.2907 38.5539 33.2907C38.4053 33.2907 38.3004 33.2382 38.2217 33.1333C38.1518 33.0284 38.1343 32.906 38.178 32.7574C38.2217 32.6088 38.3091 32.4776 38.4403 32.3727C38.5714 32.2678 38.7113 32.2153 38.8512 32.2153C38.9823 32.2153 39.0959 32.2678 39.1921 32.3727L39.262 32.1192ZM39.6205 32.7574C39.5593 32.9847 39.5855 33.1683 39.7079 33.3081C39.8216 33.4393 39.9702 33.5005 40.1538 33.5005C40.3636 33.5005 40.5647 33.4305 40.7482 33.2819C40.9318 33.142 41.0542 32.9672 41.1154 32.7574C41.1766 32.5563 41.1504 32.3815 41.0455 32.2328C40.9406 32.0842 40.7832 32.0143 40.5821 32.0143C40.3723 32.0143 40.18 32.0842 39.9964 32.2328C39.7953 32.3815 39.6729 32.5476 39.6205 32.7574ZM39.839 32.7574C39.8828 32.6088 39.9702 32.4776 40.1013 32.3815C40.2324 32.2765 40.3723 32.2241 40.5209 32.2241C40.6696 32.2241 40.7832 32.2765 40.8531 32.3815C40.9231 32.4864 40.9406 32.6088 40.8969 32.7661C40.8531 32.9147 40.7657 33.0459 40.6346 33.1508C40.5035 33.2557 40.3636 33.3081 40.215 33.3081C40.0751 33.3081 39.9702 33.2557 39.8915 33.1595C39.8041 33.0459 39.7866 32.9147 39.839 32.7574ZM41.9197 32.0492L41.5176 33.4742H42.1558L42.2082 33.2732H41.7886L42.1295 32.0492H41.9197ZM43.0999 32.0492L42.6978 33.4742H43.336L43.3884 33.2732H42.9688L43.3097 32.0492H43.0999ZM45.067 32.0492H44.2801L43.878 33.4742H44.6648L44.7173 33.2732H44.149L44.2801 32.7923H44.8396L44.8921 32.5913H44.3413L44.4375 32.2503H45.0058L45.067 32.0492ZM46.728 32.1192C46.6318 32.0492 46.5182 32.0143 46.387 32.0143C46.151 32.0143 45.9412 32.1017 45.7401 32.2765C45.5827 32.4164 45.4778 32.5825 45.4254 32.7574C45.3642 32.9584 45.3904 33.1333 45.4953 33.2732C45.6002 33.413 45.7576 33.4917 45.9587 33.4917C46.0898 33.4917 46.2384 33.4568 46.3783 33.3868L46.4482 33.1246C46.4045 33.1508 46.3608 33.177 46.3258 33.2032C46.2909 33.2207 46.2559 33.2382 46.2209 33.2557C46.1597 33.2819 46.0898 33.2907 46.0199 33.2907C45.8712 33.2907 45.7663 33.2382 45.6877 33.1333C45.6177 33.0284 45.6002 32.906 45.6439 32.7574C45.6877 32.6088 45.7751 32.4776 45.9062 32.3727C46.0373 32.2678 46.1772 32.2153 46.3171 32.2153C46.4482 32.2153 46.5619 32.2678 46.6581 32.3727L46.728 32.1192ZM48.0219 32.2503L48.0743 32.0492H47.2088L47.1476 32.2503H47.4798L47.1389 33.4742H47.3574L47.6984 32.2503H48.0219ZM48.6163 32.0492L48.2142 33.4742H48.4327L48.8349 32.0492H48.6163ZM49.2458 32.7574C49.1846 32.9847 49.2108 33.1683 49.3332 33.3081C49.4469 33.4393 49.5955 33.5005 49.7791 33.5005C49.9889 33.5005 50.1812 33.4305 50.3736 33.2819C50.5571 33.142 50.6795 32.9672 50.7407 32.7574C50.8019 32.5563 50.7757 32.3815 50.6708 32.2328C50.5659 32.0842 50.4085 32.0143 50.2074 32.0143C49.9976 32.0143 49.8053 32.0842 49.6217 32.2328C49.4206 32.3815 49.2982 32.5476 49.2458 32.7574ZM49.4643 32.7574C49.5081 32.6088 49.5955 32.4776 49.7266 32.3815C49.8577 32.2765 49.9976 32.2241 50.1462 32.2241C50.2949 32.2241 50.4085 32.2765 50.4785 32.3815C50.5484 32.4864 50.5659 32.6088 50.5222 32.7661C50.4785 32.9147 50.391 33.0459 50.2599 33.1508C50.1288 33.2557 49.9889 33.3081 49.8403 33.3081C49.7004 33.3081 49.5955 33.2557 49.5168 33.1595C49.4294 33.0459 49.4119 32.9147 49.4643 32.7574ZM51.3614 33.4742L51.6412 32.4776L52.3755 33.5617L52.8039 32.0492H52.5854L52.3056 33.0371L51.5712 31.9443L51.1429 33.4655H51.3614V33.4742Z" fill="#6D6E71"/>
</svg>
