<svg width="22" height="22" viewBox="0 0 22 22" fill="none" xmlns="http://www.w3.org/2000/svg">
<path d="M7.33329 1.83301C7.57641 1.83301 7.80957 1.92958 7.98147 2.10149C8.15338 2.2734 8.24996 2.50656 8.24996 2.74967C8.24996 2.99279 8.15338 3.22595 7.98147 3.39786C7.80957 3.56976 7.57641 3.66634 7.33329 3.66634H3.66663V7.33301C3.66663 7.57612 3.57005 7.80928 3.39814 7.98119C3.22623 8.1531 2.99307 8.24967 2.74996 8.24967C2.50684 8.24967 2.27369 8.1531 2.10178 7.98119C1.92987 7.80928 1.83329 7.57612 1.83329 7.33301V2.74967C1.83329 2.50656 1.92987 2.2734 2.10178 2.10149C2.27369 1.92958 2.50684 1.83301 2.74996 1.83301H7.33329ZM7.33329 18.333H3.66663V14.6663C3.66663 14.4232 3.57005 14.1901 3.39814 14.0182C3.22623 13.8463 2.99307 13.7497 2.74996 13.7497C2.50684 13.7497 2.27369 13.8463 2.10178 14.0182C1.92987 14.1901 1.83329 14.4232 1.83329 14.6663V19.2497C1.83329 19.4928 1.92987 19.7259 2.10178 19.8979C2.27369 20.0698 2.50684 20.1663 2.74996 20.1663H7.33329C7.57641 20.1663 7.80957 20.0698 7.98147 19.8979C8.15338 19.7259 8.24996 19.4928 8.24996 19.2497C8.24996 19.0066 8.15338 18.7734 7.98147 18.6015C7.80957 18.4296 7.57641 18.333 7.33329 18.333ZM19.25 13.7497C19.0068 13.7497 18.7737 13.8463 18.6018 14.0182C18.4299 14.1901 18.3333 14.4232 18.3333 14.6663V18.333H14.6666C14.4235 18.333 14.1904 18.4296 14.0184 18.6015C13.8465 18.7734 13.75 19.0066 13.75 19.2497C13.75 19.4928 13.8465 19.7259 14.0184 19.8979C14.1904 20.0698 14.4235 20.1663 14.6666 20.1663H19.25C19.4931 20.1663 19.7262 20.0698 19.8981 19.8979C20.07 19.7259 20.1666 19.4928 20.1666 19.2497V14.6663C20.1666 14.4232 20.07 14.1901 19.8981 14.0182C19.7262 13.8463 19.4931 13.7497 19.25 13.7497ZM19.25 8.24967C19.4931 8.24967 19.7262 8.1531 19.8981 7.98119C20.07 7.80928 20.1666 7.57612 20.1666 7.33301V2.74967C20.1666 2.50656 20.07 2.2734 19.8981 2.10149C19.7262 1.92958 19.4931 1.83301 19.25 1.83301H14.6666C14.4235 1.83301 14.1904 1.92958 14.0184 2.10149C13.8465 2.2734 13.75 2.50656 13.75 2.74967C13.75 2.99279 13.8465 3.22595 14.0184 3.39786C14.1904 3.56976 14.4235 3.66634 14.6666 3.66634H18.3333V7.33301C18.3333 7.57612 18.4299 7.80928 18.6018 7.98119C18.7737 8.1531 19.0068 8.24967 19.25 8.24967ZM20.1666 10.083H1.83329C1.59018 10.083 1.35702 10.1796 1.18511 10.3515C1.0132 10.5234 0.916626 10.7566 0.916626 10.9997C0.916626 11.2428 1.0132 11.4759 1.18511 11.6479C1.35702 11.8198 1.59018 11.9163 1.83329 11.9163H20.1666C20.4097 11.9163 20.6429 11.8198 20.8148 11.6479C20.9867 11.4759 21.0833 11.2428 21.0833 10.9997C21.0833 10.7566 20.9867 10.5234 20.8148 10.3515C20.6429 10.1796 20.4097 10.083 20.1666 10.083Z" fill="#1A9E75"/>
</svg>
