<svg width="22" height="22" viewBox="0 0 22 22" fill="none" xmlns="http://www.w3.org/2000/svg">
<mask id="mask0_1_23901" style="mask-type:alpha" maskUnits="userSpaceOnUse" x="0" y="0" width="22" height="22">
<rect width="22" height="22" fill="#D9D9D9"/>
</mask>
<g mask="url(#mask0_1_23901)">
<path d="M16.2708 18.5625C15.3083 18.5625 14.4948 18.2302 13.8302 17.5656C13.1656 16.901 12.8333 16.0875 12.8333 15.125C12.8333 14.1625 13.1656 13.349 13.8302 12.6844C14.4948 12.0198 15.3083 11.6875 16.2708 11.6875C17.2333 11.6875 18.0468 12.0198 18.7114 12.6844C19.376 13.349 19.7083 14.1625 19.7083 15.125C19.7083 16.0875 19.376 16.901 18.7114 17.5656C18.0468 18.2302 17.2333 18.5625 16.2708 18.5625ZM16.2708 16.7292C16.7138 16.7292 17.092 16.5726 17.4052 16.2594C17.7184 15.9462 17.875 15.5681 17.875 15.125C17.875 14.6819 17.7184 14.3038 17.4052 13.9906C17.092 13.6774 16.7138 13.5208 16.2708 13.5208C15.8277 13.5208 15.4496 13.6774 15.1364 13.9906C14.8232 14.3038 14.6666 14.6819 14.6666 15.125C14.6666 15.5681 14.8232 15.9462 15.1364 16.2594C15.4496 16.5726 15.8277 16.7292 16.2708 16.7292ZM3.66663 16.0417V14.2083H11V16.0417H3.66663ZM5.72913 10.3125C4.76663 10.3125 3.95308 9.98021 3.2885 9.31563C2.62392 8.65104 2.29163 7.8375 2.29163 6.875C2.29163 5.9125 2.62392 5.09896 3.2885 4.43437C3.95308 3.76979 4.76663 3.4375 5.72913 3.4375C6.69163 3.4375 7.50517 3.76979 8.16975 4.43437C8.83433 5.09896 9.16663 5.9125 9.16663 6.875C9.16663 7.8375 8.83433 8.65104 8.16975 9.31563C7.50517 9.98021 6.69163 10.3125 5.72913 10.3125ZM5.72913 8.47917C6.17218 8.47917 6.55031 8.32257 6.8635 8.00938C7.1767 7.69618 7.33329 7.31806 7.33329 6.875C7.33329 6.43194 7.1767 6.05382 6.8635 5.74063C6.55031 5.42743 6.17218 5.27083 5.72913 5.27083C5.28607 5.27083 4.90795 5.42743 4.59475 5.74063C4.28156 6.05382 4.12496 6.43194 4.12496 6.875C4.12496 7.31806 4.28156 7.69618 4.59475 8.00938C4.90795 8.32257 5.28607 8.47917 5.72913 8.47917ZM11 7.79167V5.95833H18.3333V7.79167H11Z" fill="#1A9E75"/>
</g>
</svg>
