<svg width="50" height="10" viewBox="0 0 50 10" fill="none" xmlns="http://www.w3.org/2000/svg">
<path d="M3.27148 0.421875V9H2.1875V1.77539L0.00195312 2.57227V1.59375L3.10156 0.421875H3.27148ZM10.0215 0.421875V9H8.9375V1.77539L6.75195 2.57227V1.59375L9.85156 0.421875H10.0215ZM13.2793 8.42578C13.2793 8.24219 13.3359 8.08789 13.4492 7.96289C13.5664 7.83398 13.7344 7.76953 13.9531 7.76953C14.1719 7.76953 14.3379 7.83398 14.4512 7.96289C14.5684 8.08789 14.627 8.24219 14.627 8.42578C14.627 8.60547 14.5684 8.75781 14.4512 8.88281C14.3379 9.00781 14.1719 9.07031 13.9531 9.07031C13.7344 9.07031 13.5664 9.00781 13.4492 8.88281C13.3359 8.75781 13.2793 8.60547 13.2793 8.42578ZM13.2852 3.25195C13.2852 3.06836 13.3418 2.91406 13.4551 2.78906C13.5723 2.66016 13.7402 2.5957 13.959 2.5957C14.1777 2.5957 14.3438 2.66016 14.457 2.78906C14.5742 2.91406 14.6328 3.06836 14.6328 3.25195C14.6328 3.43164 14.5742 3.58398 14.457 3.70898C14.3438 3.83398 14.1777 3.89648 13.959 3.89648C13.7402 3.89648 13.5723 3.83398 13.4551 3.70898C13.3418 3.58398 13.2852 3.43164 13.2852 3.25195ZM21.8809 6.12891V7.01953H15.7168V6.38086L19.5371 0.46875H20.4219L19.4727 2.17969L16.9473 6.12891H21.8809ZM20.6914 0.46875V9H19.6074V0.46875H20.6914ZM23.9434 8.0918H24.0547C24.6797 8.0918 25.1875 8.00391 25.5781 7.82812C25.9688 7.65234 26.2695 7.41602 26.4805 7.11914C26.6914 6.82227 26.8359 6.48828 26.9141 6.11719C26.9922 5.74219 27.0312 5.35742 27.0312 4.96289V3.65625C27.0312 3.26953 26.9863 2.92578 26.8965 2.625C26.8105 2.32422 26.6895 2.07227 26.5332 1.86914C26.3809 1.66602 26.207 1.51172 26.0117 1.40625C25.8164 1.30078 25.6094 1.24805 25.3906 1.24805C25.1406 1.24805 24.916 1.29883 24.7168 1.40039C24.5215 1.49805 24.3555 1.63672 24.2188 1.81641C24.0859 1.99609 23.9844 2.20703 23.9141 2.44922C23.8438 2.69141 23.8086 2.95508 23.8086 3.24023C23.8086 3.49414 23.8398 3.74023 23.9023 3.97852C23.9648 4.2168 24.0605 4.43164 24.1895 4.62305C24.3184 4.81445 24.4785 4.9668 24.6699 5.08008C24.8652 5.18945 25.0938 5.24414 25.3555 5.24414C25.5977 5.24414 25.8242 5.19727 26.0352 5.10352C26.25 5.00586 26.4395 4.875 26.6035 4.71094C26.7715 4.54297 26.9043 4.35352 27.002 4.14258C27.1035 3.93164 27.1621 3.71094 27.1777 3.48047H27.6934C27.6934 3.80469 27.6289 4.125 27.5 4.44141C27.375 4.75391 27.1992 5.03906 26.9727 5.29688C26.7461 5.55469 26.4805 5.76172 26.1758 5.91797C25.8711 6.07031 25.5391 6.14648 25.1797 6.14648C24.7578 6.14648 24.3926 6.06445 24.084 5.90039C23.7754 5.73633 23.5215 5.51758 23.3223 5.24414C23.127 4.9707 22.9805 4.66602 22.8828 4.33008C22.7891 3.99023 22.7422 3.64648 22.7422 3.29883C22.7422 2.89258 22.7988 2.51172 22.9121 2.15625C23.0254 1.80078 23.1934 1.48828 23.416 1.21875C23.6387 0.945312 23.9141 0.732422 24.2422 0.580078C24.5742 0.427734 24.957 0.351562 25.3906 0.351562C25.8789 0.351562 26.2949 0.449219 26.6387 0.644531C26.9824 0.839844 27.2617 1.10156 27.4766 1.42969C27.6953 1.75781 27.8555 2.12695 27.957 2.53711C28.0586 2.94727 28.1094 3.36914 28.1094 3.80273V4.19531C28.1094 4.63672 28.0801 5.08594 28.0215 5.54297C27.9668 5.99609 27.8594 6.42969 27.6992 6.84375C27.543 7.25781 27.3145 7.62891 27.0137 7.95703C26.7129 8.28125 26.3203 8.53906 25.8359 8.73047C25.3555 8.91797 24.7617 9.01172 24.0547 9.01172H23.9434V8.0918ZM36.0312 1.22461L33.207 9H32.0527L35.3047 0.46875H36.0488L36.0312 1.22461ZM38.3984 9L35.5684 1.22461L35.5508 0.46875H36.2949L39.5586 9H38.3984ZM38.252 5.8418V6.76758H33.459V5.8418H38.252ZM41.0586 0.46875H42.1543L44.9492 7.42383L47.7383 0.46875H48.8398L45.3711 9H44.5156L41.0586 0.46875ZM40.7012 0.46875H41.668L41.8262 5.67188V9H40.7012V0.46875ZM48.2246 0.46875H49.1914V9H48.0664V5.67188L48.2246 0.46875Z" fill="#393939"/>
</svg>
