<svg width="24" height="24" viewBox="0 0 24 24" fill="none" xmlns="http://www.w3.org/2000/svg">
<g clip-path="url(#clip0_1_23842)">
<path d="M19.6599 11.599C19.5797 11.599 19.4974 11.6105 19.4153 11.6332L18.4858 11.8891L17.5206 9.53803C17.2471 8.87191 16.4389 8.33008 15.7189 8.33008H6.68604C5.96607 8.33008 5.15781 8.87191 4.88435 9.53803L3.92043 11.886L3.00269 11.6333C2.92051 11.6106 2.83824 11.5991 2.75801 11.5991C2.31871 11.5991 2 11.9347 2 12.397V12.9451C2 13.4848 2.43911 13.9239 2.97882 13.9239H3.08394L2.9282 14.3033C2.67417 14.9222 2.46752 15.9699 2.46752 16.6388V21.3096C2.46752 21.8493 2.90663 22.2884 3.44634 22.2884H4.7248C5.26451 22.2884 5.70362 21.8493 5.70362 21.3096V20.1431H16.7018V21.3096C16.7018 21.8493 17.1409 22.2884 17.6806 22.2884H18.9589C19.4986 22.2884 19.9377 21.8493 19.9377 21.3096V16.6388C19.9377 15.9698 19.731 14.9221 19.477 14.3033L19.3213 13.9239H19.4394C19.9791 13.9239 20.4182 13.4848 20.4182 12.9451V12.397C20.4179 11.9346 20.0991 11.599 19.6599 11.599ZM4.62236 13.3922L6.0823 9.83573C6.24582 9.43734 6.73204 9.11132 7.16273 9.11132H15.2422C15.6729 9.11132 16.159 9.43725 16.3226 9.83573L17.7826 13.3922C17.9462 13.7906 17.7276 14.1165 17.2969 14.1165H5.10802C4.67742 14.1165 4.45884 13.7906 4.62236 13.3922ZM7.88159 17.8905C7.88159 18.1057 7.70539 18.2819 7.49014 18.2819H4.71647C4.50113 18.2819 4.32502 18.1057 4.32502 17.8905V16.5594C4.32502 16.3441 4.50122 16.1679 4.71647 16.1679H7.49005C7.70539 16.1679 7.8815 16.3441 7.8815 16.5594L7.88159 17.8905ZM18.0536 17.8905C18.0536 18.1057 17.8774 18.2819 17.6622 18.2819H14.8887C14.6733 18.2819 14.4972 18.1057 14.4972 17.8905V16.5594C14.4972 16.3441 14.6734 16.1679 14.8887 16.1679H17.6622C17.8775 16.1679 18.0536 16.3441 18.0536 16.5594V17.8905Z" fill="#1B9E76"/>
<path d="M25.1984 7.05566H23.5539L6.38728 1.58366C6.30862 1.55858 6.22709 1.5459 6.14473 1.5459C5.79381 1.5459 5.48648 1.77013 5.38006 2.10393L5.00822 3.27042C4.94326 3.47392 4.96177 3.69102 5.06023 3.88156C5.1586 4.07211 5.3249 4.21277 5.52849 4.27764L22.292 9.6211V21.6525C22.292 22.0945 22.6516 22.4541 23.0936 22.4541H25.1984C25.6403 22.4541 26 22.0945 26 21.6525V7.85726C26 7.41518 25.6403 7.05566 25.1984 7.05566ZM7.61679 3.01278L7.35823 3.82391C7.29271 4.02963 7.10235 4.16095 6.89737 4.16095C6.8487 4.16095 6.79909 4.15354 6.75032 4.1379C6.49574 4.05675 6.35508 3.78458 6.43624 3.53L6.6948 2.71887C6.77587 2.46419 7.04831 2.32353 7.30271 2.40478C7.55738 2.48603 7.69795 2.7582 7.61679 3.01278ZM10.4498 3.9158L10.1913 4.72684C10.1258 4.93265 9.93543 5.06397 9.73045 5.06397C9.68177 5.06397 9.63226 5.05657 9.5834 5.04093C9.32882 4.95986 9.18815 4.6876 9.26931 4.43302L9.52778 3.62198C9.60894 3.36722 9.88111 3.22674 10.1357 3.3079C10.3903 3.38906 10.5309 3.66122 10.4498 3.9158ZM13.2829 4.81883L13.0244 5.62996C12.9588 5.83568 12.7685 5.96699 12.5635 5.96699C12.5149 5.96699 12.4653 5.95959 12.4165 5.94404C12.1619 5.86289 12.0212 5.59072 12.1024 5.33614L12.361 4.52501C12.4421 4.27033 12.7141 4.12967 12.9689 4.21092C13.2234 4.29208 13.364 4.56424 13.2829 4.81883ZM16.1158 5.72194L15.8574 6.53307C15.7919 6.73879 15.6015 6.87011 15.3965 6.87011C15.3478 6.87011 15.2983 6.86271 15.2495 6.84716C14.9949 6.766 14.8542 6.49384 14.9354 6.23925L15.1939 5.42812C15.2751 5.17345 15.5471 5.03269 15.8018 5.11404C16.0564 5.1951 16.197 5.46727 16.1158 5.72194ZM18.9489 6.62497L18.6904 7.4361C18.6248 7.64182 18.4345 7.77314 18.2295 7.77314C18.1808 7.77314 18.1312 7.76573 18.0824 7.75018C17.8279 7.66903 17.6872 7.39686 17.7684 7.14228L18.0269 6.33115C18.108 6.07647 18.3802 5.93581 18.6348 6.01706C18.8895 6.09813 19.0301 6.37038 18.9489 6.62497ZM21.7819 7.5279L21.5234 8.33894C21.4579 8.54475 21.2676 8.67607 21.0626 8.67607C21.0139 8.67607 20.9644 8.66866 20.9155 8.65302C20.6609 8.57196 20.5203 8.2997 20.6014 8.04512L20.8599 7.23408C20.9411 6.97931 21.2133 6.83865 21.4678 6.91999C21.7225 7.00115 21.8631 7.27332 21.7819 7.5279Z" fill="#1B9E76"/>
</g>
<defs>
<clipPath id="clip0_1_23842">
<rect width="24" height="24" fill="white"/>
</clipPath>
</defs>
</svg>
