<svg width="360" height="30" viewBox="0 0 360 30" fill="none" xmlns="http://www.w3.org/2000/svg">
<rect width="360" height="30" fill="#B8DED2"/>
<path d="M22.2715 12.4219V21H21.1875V13.7754L19.002 14.5723V13.5938L22.1016 12.4219H22.2715ZM29.0215 12.4219V21H27.9375V13.7754L25.752 14.5723V13.5938L28.8516 12.4219H29.0215ZM32.2793 20.4258C32.2793 20.2422 32.3359 20.0879 32.4492 19.9629C32.5664 19.834 32.7344 19.7695 32.9531 19.7695C33.1719 19.7695 33.3379 19.834 33.4512 19.9629C33.5684 20.0879 33.627 20.2422 33.627 20.4258C33.627 20.6055 33.5684 20.7578 33.4512 20.8828C33.3379 21.0078 33.1719 21.0703 32.9531 21.0703C32.7344 21.0703 32.5664 21.0078 32.4492 20.8828C32.3359 20.7578 32.2793 20.6055 32.2793 20.4258ZM32.2852 15.252C32.2852 15.0684 32.3418 14.9141 32.4551 14.7891C32.5723 14.6602 32.7402 14.5957 32.959 14.5957C33.1777 14.5957 33.3438 14.6602 33.457 14.7891C33.5742 14.9141 33.6328 15.0684 33.6328 15.252C33.6328 15.4316 33.5742 15.584 33.457 15.709C33.3438 15.834 33.1777 15.8965 32.959 15.8965C32.7402 15.8965 32.5723 15.834 32.4551 15.709C32.3418 15.584 32.2852 15.4316 32.2852 15.252ZM40.8809 18.1289V19.0195H34.7168V18.3809L38.5371 12.4688H39.4219L38.4727 14.1797L35.9473 18.1289H40.8809ZM39.6914 12.4688V21H38.6074V12.4688H39.6914ZM42.9434 20.0918H43.0547C43.6797 20.0918 44.1875 20.0039 44.5781 19.8281C44.9688 19.6523 45.2695 19.416 45.4805 19.1191C45.6914 18.8223 45.8359 18.4883 45.9141 18.1172C45.9922 17.7422 46.0312 17.3574 46.0312 16.9629V15.6562C46.0312 15.2695 45.9863 14.9258 45.8965 14.625C45.8105 14.3242 45.6895 14.0723 45.5332 13.8691C45.3809 13.666 45.207 13.5117 45.0117 13.4062C44.8164 13.3008 44.6094 13.248 44.3906 13.248C44.1406 13.248 43.916 13.2988 43.7168 13.4004C43.5215 13.498 43.3555 13.6367 43.2188 13.8164C43.0859 13.9961 42.9844 14.207 42.9141 14.4492C42.8438 14.6914 42.8086 14.9551 42.8086 15.2402C42.8086 15.4941 42.8398 15.7402 42.9023 15.9785C42.9648 16.2168 43.0605 16.4316 43.1895 16.623C43.3184 16.8145 43.4785 16.9668 43.6699 17.0801C43.8652 17.1895 44.0938 17.2441 44.3555 17.2441C44.5977 17.2441 44.8242 17.1973 45.0352 17.1035C45.25 17.0059 45.4395 16.875 45.6035 16.7109C45.7715 16.543 45.9043 16.3535 46.002 16.1426C46.1035 15.9316 46.1621 15.7109 46.1777 15.4805H46.6934C46.6934 15.8047 46.6289 16.125 46.5 16.4414C46.375 16.7539 46.1992 17.0391 45.9727 17.2969C45.7461 17.5547 45.4805 17.7617 45.1758 17.918C44.8711 18.0703 44.5391 18.1465 44.1797 18.1465C43.7578 18.1465 43.3926 18.0645 43.084 17.9004C42.7754 17.7363 42.5215 17.5176 42.3223 17.2441C42.127 16.9707 41.9805 16.666 41.8828 16.3301C41.7891 15.9902 41.7422 15.6465 41.7422 15.2988C41.7422 14.8926 41.7988 14.5117 41.9121 14.1562C42.0254 13.8008 42.1934 13.4883 42.416 13.2188C42.6387 12.9453 42.9141 12.7324 43.2422 12.5801C43.5742 12.4277 43.957 12.3516 44.3906 12.3516C44.8789 12.3516 45.2949 12.4492 45.6387 12.6445C45.9824 12.8398 46.2617 13.1016 46.4766 13.4297C46.6953 13.7578 46.8555 14.127 46.957 14.5371C47.0586 14.9473 47.1094 15.3691 47.1094 15.8027V16.1953C47.1094 16.6367 47.0801 17.0859 47.0215 17.543C46.9668 17.9961 46.8594 18.4297 46.6992 18.8438C46.543 19.2578 46.3145 19.6289 46.0137 19.957C45.7129 20.2812 45.3203 20.5391 44.8359 20.7305C44.3555 20.918 43.7617 21.0117 43.0547 21.0117H42.9434V20.0918ZM55.0312 13.2246L52.207 21H51.0527L54.3047 12.4688H55.0488L55.0312 13.2246ZM57.3984 21L54.5684 13.2246L54.5508 12.4688H55.2949L58.5586 21H57.3984ZM57.252 17.8418V18.7676H52.459V17.8418H57.252ZM60.0586 12.4688H61.1543L63.9492 19.4238L66.7383 12.4688H67.8398L64.3711 21H63.5156L60.0586 12.4688ZM59.7012 12.4688H60.668L60.8262 17.6719V21H59.7012V12.4688ZM67.2246 12.4688H68.1914V21H67.0664V17.6719L67.2246 12.4688Z" fill="#393939"/>
<path d="M309.663 20.3258C309.363 20.3258 309.137 20.1008 309.137 19.8008V10.2008C309.137 9.90078 309.363 9.67578 309.663 9.67578C309.962 9.67578 310.188 9.90078 310.188 10.2008V19.8258C310.212 20.1008 309.962 20.3258 309.663 20.3258ZM306.512 20.3258C306.213 20.3258 305.988 20.1008 305.988 19.8008V12.1758C305.988 11.8758 306.213 11.6508 306.512 11.6508C306.812 11.6508 307.038 11.8758 307.038 12.1758V19.8008C307.062 20.1008 306.812 20.3258 306.512 20.3258ZM303.363 20.3258C303.062 20.3258 302.838 20.1008 302.838 19.8008V14.8008C302.838 14.5008 303.062 14.2758 303.363 14.2758C303.663 14.2758 303.887 14.5008 303.887 14.8008V19.8008C303.887 20.1008 303.638 20.3258 303.363 20.3258ZM300.212 20.3258C299.912 20.3258 299.688 20.1008 299.688 19.8008V16.5008C299.688 16.2008 299.912 15.9758 300.212 15.9758C300.512 15.9758 300.737 16.2008 300.737 16.5008V19.8008C300.737 20.1008 300.487 20.3258 300.212 20.3258Z" fill="#393939"/>
<g clip-path="url(#clip0_1_23880)">
<path d="M321.875 10V20H336.875V16.875H338.125V13.125H336.875V10H321.875ZM323.125 11.25H335.625V18.75H323.125V11.25ZM324.375 12.5V17.5H329.375V12.5H324.375Z" fill="#393939"/>
</g>
<defs>
<clipPath id="clip0_1_23880">
<rect width="20" height="20" fill="white" transform="translate(322 1)"/>
</clipPath>
</defs>
</svg>
