<svg width="22" height="22" viewBox="0 0 22 22" fill="none" xmlns="http://www.w3.org/2000/svg">
<mask id="mask0_1_23893" style="mask-type:alpha" maskUnits="userSpaceOnUse" x="0" y="0" width="22" height="22">
<rect width="22" height="22" fill="#D9D9D9"/>
</mask>
<g mask="url(#mask0_1_23893)">
<path d="M10.0841 21.0369V19.2036C8.17437 18.9897 6.53583 18.1991 5.16847 16.8317C3.8011 15.4643 3.01048 13.8258 2.79659 11.9161H0.963257V10.0827H2.79659C3.01048 8.17302 3.8011 6.53448 5.16847 5.16712C6.53583 3.79976 8.17437 3.00914 10.0841 2.79525V0.961914H11.9174V2.79525C13.8271 3.00914 15.4657 3.79976 16.833 5.16712C18.2004 6.53448 18.991 8.17302 19.2049 10.0827H21.0383V11.9161H19.2049C18.991 13.8258 18.2004 15.4643 16.833 16.8317C15.4657 18.1991 13.8271 18.9897 11.9174 19.2036V21.0369H10.0841ZM11.0008 17.4161C12.773 17.4161 14.2855 16.7897 15.5383 15.5369C16.791 14.2841 17.4174 12.7716 17.4174 10.9994C17.4174 9.22719 16.791 7.71469 15.5383 6.46191C14.2855 5.20914 12.773 4.58275 11.0008 4.58275C9.22853 4.58275 7.71603 5.20914 6.46326 6.46191C5.21048 7.71469 4.58409 9.22719 4.58409 10.9994C4.58409 12.7716 5.21048 14.2841 6.46326 15.5369C7.71603 16.7897 9.22853 17.4161 11.0008 17.4161ZM11.0008 14.6661C9.99242 14.6661 9.12923 14.3071 8.41117 13.589C7.69312 12.8709 7.33409 12.0077 7.33409 10.9994C7.33409 9.99108 7.69312 9.12789 8.41117 8.40983C9.12923 7.69177 9.99242 7.33275 11.0008 7.33275C12.0091 7.33275 12.8723 7.69177 13.5903 8.40983C14.3084 9.12789 14.6674 9.99108 14.6674 10.9994C14.6674 12.0077 14.3084 12.8709 13.5903 13.589C12.8723 14.3071 12.0091 14.6661 11.0008 14.6661Z" fill="#1A9E75"/>
</g>
</svg>
