<svg width="20" height="20" viewBox="0 0 20 20" fill="none" xmlns="http://www.w3.org/2000/svg">
<path d="M14.6625 19.3258C14.3625 19.3258 14.1375 19.1008 14.1375 18.8008V9.20078C14.1375 8.90078 14.3625 8.67578 14.6625 8.67578C14.9625 8.67578 15.1875 8.90078 15.1875 9.20078V18.8258C15.2125 19.1008 14.9625 19.3258 14.6625 19.3258ZM11.5125 19.3258C11.2125 19.3258 10.9875 19.1008 10.9875 18.8008V11.1758C10.9875 10.8758 11.2125 10.6508 11.5125 10.6508C11.8125 10.6508 12.0375 10.8758 12.0375 11.1758V18.8008C12.0625 19.1008 11.8125 19.3258 11.5125 19.3258ZM8.3625 19.3258C8.0625 19.3258 7.8375 19.1008 7.8375 18.8008V13.8008C7.8375 13.5008 8.0625 13.2758 8.3625 13.2758C8.6625 13.2758 8.8875 13.5008 8.8875 13.8008V18.8008C8.8875 19.1008 8.6375 19.3258 8.3625 19.3258ZM5.2125 19.3258C4.9125 19.3258 4.6875 19.1008 4.6875 18.8008V15.5008C4.6875 15.2008 4.9125 14.9758 5.2125 14.9758C5.5125 14.9758 5.7375 15.2008 5.7375 15.5008V18.8008C5.7375 19.1008 5.4875 19.3258 5.2125 19.3258Z" fill="#393939"/>
</svg>
